<svg width="141" height="40" viewBox="0 0 141 40" fill="none" xmlns="http://www.w3.org/2000/svg">
<path d="M37.8571 6.28758V0L21.3736 9.36243V29.8568L26.9055 26.713V12.5062L37.8571 6.28758Z" fill="#404EED"/>
<path d="M2.14286 6.28758V0L18.6264 9.36243V29.8568L13.0945 26.713V12.5062L2.14286 6.28758Z" fill="#404EED"/>
<path d="M20 6.28758V3.14379V0L3.51649 9.36243V29.8568L9.04834 26.713V12.5062L20 6.28758Z" fill="#404EED"/>
<path d="M20 6.28758V3.14379V0L36.4835 9.36243V29.8568L30.9517 26.713V12.5062L20 6.28758Z" fill="#404EED"/>
<path d="M20 33.7124V40L3.51649 30.6376V10.1432L9.04834 13.287V27.4938L20 33.7124Z" fill="#404EED"/>
<path d="M20 33.7124V40L36.4835 30.6376V10.1432L30.9517 13.287V27.4938L20 33.7124Z" fill="#404EED"/>
<path d="M62.3672 16.0156C61.2943 16.0156 60.4505 16.3958 59.8359 17.1562C59.2214 17.9167 58.9141 18.9661 58.9141 20.3047C58.9141 21.7057 59.2083 22.7656 59.7969 23.4844C60.3906 24.2031 61.2474 24.5625 62.3672 24.5625C62.8516 24.5625 63.3203 24.5156 63.7734 24.4219C64.2266 24.3229 64.6979 24.1979 65.1875 24.0469V25.6484C64.2917 25.987 63.276 26.1562 62.1406 26.1562C60.4688 26.1562 59.1849 25.651 58.2891 24.6406C57.3932 23.625 56.9453 22.1745 56.9453 20.2891C56.9453 19.1016 57.1615 18.0625 57.5938 17.1719C58.0312 16.2812 58.6615 15.599 59.4844 15.125C60.3073 14.651 61.2734 14.4141 62.3828 14.4141C63.5495 14.4141 64.6276 14.6589 65.6172 15.1484L64.9453 16.7031C64.5599 16.5208 64.151 16.362 63.7188 16.2266C63.2917 16.0859 62.8411 16.0156 62.3672 16.0156ZM72.8594 26L72.4922 24.7969H72.4297C72.013 25.3229 71.5938 25.6823 71.1719 25.875C70.75 26.0625 70.2083 26.1562 69.5469 26.1562C68.6979 26.1562 68.0339 25.9271 67.5547 25.4688C67.0807 25.0104 66.8438 24.362 66.8438 23.5234C66.8438 22.6328 67.1745 21.9609 67.8359 21.5078C68.4974 21.0547 69.5052 20.8073 70.8594 20.7656L72.3516 20.7188V20.2578C72.3516 19.7057 72.2214 19.2943 71.9609 19.0234C71.7057 18.7474 71.3073 18.6094 70.7656 18.6094C70.3229 18.6094 69.8984 18.6745 69.4922 18.8047C69.0859 18.9349 68.6953 19.0885 68.3203 19.2656L67.7266 17.9531C68.1953 17.7083 68.7083 17.5234 69.2656 17.3984C69.8229 17.2682 70.349 17.2031 70.8438 17.2031C71.9427 17.2031 72.7708 17.4427 73.3281 17.9219C73.8906 18.401 74.1719 19.1536 74.1719 20.1797V26H72.8594ZM70.125 24.75C70.7917 24.75 71.3255 24.5651 71.7266 24.1953C72.1328 23.8203 72.3359 23.2969 72.3359 22.625V21.875L71.2266 21.9219C70.362 21.9531 69.7318 22.099 69.3359 22.3594C68.9453 22.6146 68.75 23.0078 68.75 23.5391C68.75 23.9245 68.8646 24.224 69.0938 24.4375C69.3229 24.6458 69.6667 24.75 70.125 24.75ZM81.1172 17.2031C81.487 17.2031 81.7917 17.2292 82.0312 17.2812L81.8516 18.9922C81.5911 18.9297 81.3203 18.8984 81.0391 18.8984C80.3047 18.8984 79.7083 19.138 79.25 19.6172C78.7969 20.0964 78.5703 20.7188 78.5703 21.4844V26H76.7344V17.3594H78.1719L78.4141 18.8828H78.5078C78.7943 18.3672 79.1667 17.9583 79.625 17.6562C80.0885 17.3542 80.5859 17.2031 81.1172 17.2031ZM86.8594 24.6719C87.3073 24.6719 87.7552 24.6016 88.2031 24.4609V25.8438C88 25.9323 87.737 26.0052 87.4141 26.0625C87.0964 26.125 86.7656 26.1562 86.4219 26.1562C84.6823 26.1562 83.8125 25.2396 83.8125 23.4062V18.75H82.6328V17.9375L83.8984 17.2656L84.5234 15.4375H85.6562V17.3594H88.1172V18.75H85.6562V23.375C85.6562 23.8177 85.7656 24.1458 85.9844 24.3594C86.2083 24.5677 86.5 24.6719 86.8594 24.6719ZM96.0312 26L95.7734 24.8672H95.6797C95.4245 25.2682 95.0599 25.5833 94.5859 25.8125C94.1172 26.0417 93.5807 26.1562 92.9766 26.1562C91.9297 26.1562 91.1484 25.8958 90.6328 25.375C90.1172 24.8542 89.8594 24.0651 89.8594 23.0078V17.3594H91.7109V22.6875C91.7109 23.349 91.8464 23.8464 92.1172 24.1797C92.388 24.5078 92.8125 24.6719 93.3906 24.6719C94.1615 24.6719 94.7266 24.4427 95.0859 23.9844C95.4505 23.5208 95.6328 22.7474 95.6328 21.6641V17.3594H97.4766V26H96.0312ZM107.695 26H105.852V20.6875C105.852 20.0208 105.716 19.5234 105.445 19.1953C105.18 18.8672 104.755 18.7031 104.172 18.7031C103.396 18.7031 102.828 18.9323 102.469 19.3906C102.109 19.849 101.93 20.6172 101.93 21.6953V26H100.094V17.3594H101.531L101.789 18.4922H101.883C102.143 18.0807 102.513 17.763 102.992 17.5391C103.471 17.3151 104.003 17.2031 104.586 17.2031C106.659 17.2031 107.695 18.2578 107.695 20.3672V26ZM112.086 26H110.25V17.3594H112.086V26ZM110.141 15.0703C110.141 14.7422 110.229 14.4896 110.406 14.3125C110.589 14.1354 110.846 14.0469 111.18 14.0469C111.503 14.0469 111.753 14.1354 111.93 14.3125C112.112 14.4896 112.203 14.7422 112.203 15.0703C112.203 15.3828 112.112 15.6302 111.93 15.8125C111.753 15.9896 111.503 16.0781 111.18 16.0781C110.846 16.0781 110.589 15.9896 110.406 15.8125C110.229 15.6302 110.141 15.3828 110.141 15.0703ZM122.32 26H120.477V20.6875C120.477 20.0208 120.341 19.5234 120.07 19.1953C119.805 18.8672 119.38 18.7031 118.797 18.7031C118.021 18.7031 117.453 18.9323 117.094 19.3906C116.734 19.849 116.555 20.6172 116.555 21.6953V26H114.719V17.3594H116.156L116.414 18.4922H116.508C116.768 18.0807 117.138 17.763 117.617 17.5391C118.096 17.3151 118.628 17.2031 119.211 17.2031C121.284 17.2031 122.32 18.2578 122.32 20.3672V26ZM132.172 17.3594V18.3672L130.695 18.6406C130.831 18.8229 130.943 19.0469 131.031 19.3125C131.12 19.5781 131.164 19.8594 131.164 20.1562C131.164 21.0469 130.857 21.7474 130.242 22.2578C129.628 22.7682 128.781 23.0234 127.703 23.0234C127.427 23.0234 127.177 23.0026 126.953 22.9609C126.557 23.2057 126.359 23.4922 126.359 23.8203C126.359 24.0182 126.451 24.1667 126.633 24.2656C126.82 24.3646 127.161 24.4141 127.656 24.4141H129.164C130.117 24.4141 130.841 24.6172 131.336 25.0234C131.831 25.4297 132.078 26.0156 132.078 26.7812C132.078 27.7604 131.674 28.5156 130.867 29.0469C130.06 29.5781 128.893 29.8438 127.367 29.8438C126.19 29.8438 125.292 29.6354 124.672 29.2188C124.052 28.8021 123.742 28.2083 123.742 27.4375C123.742 26.9062 123.909 26.4583 124.242 26.0938C124.581 25.7344 125.052 25.4844 125.656 25.3438C125.411 25.2396 125.208 25.0729 125.047 24.8438C124.891 24.6094 124.812 24.3646 124.812 24.1094C124.812 23.7865 124.904 23.513 125.086 23.2891C125.268 23.0651 125.539 22.8438 125.898 22.625C125.451 22.4323 125.086 22.1198 124.805 21.6875C124.529 21.25 124.391 20.7396 124.391 20.1562C124.391 19.2188 124.685 18.4922 125.273 17.9766C125.867 17.4609 126.711 17.2031 127.805 17.2031C128.049 17.2031 128.305 17.2214 128.57 17.2578C128.841 17.2891 129.044 17.3229 129.18 17.3594H132.172ZM125.383 27.3438C125.383 27.7396 125.56 28.0443 125.914 28.2578C126.273 28.4714 126.776 28.5781 127.422 28.5781C128.422 28.5781 129.167 28.4349 129.656 28.1484C130.146 27.862 130.391 27.4818 130.391 27.0078C130.391 26.6328 130.255 26.3646 129.984 26.2031C129.719 26.0469 129.221 25.9688 128.492 25.9688H127.102C126.576 25.9688 126.156 26.0911 125.844 26.3359C125.536 26.5859 125.383 26.9219 125.383 27.3438ZM126.172 20.1562C126.172 20.6979 126.31 21.1146 126.586 21.4062C126.867 21.6979 127.268 21.8438 127.789 21.8438C128.852 21.8438 129.383 21.276 129.383 20.1406C129.383 19.5781 129.25 19.1458 128.984 18.8438C128.724 18.5365 128.326 18.3828 127.789 18.3828C127.258 18.3828 126.854 18.5339 126.578 18.8359C126.307 19.138 126.172 19.5781 126.172 20.1562ZM139.586 23.5391C139.586 24.3828 139.279 25.0312 138.664 25.4844C138.049 25.9323 137.169 26.1562 136.023 26.1562C134.872 26.1562 133.948 25.9818 133.25 25.6328V24.0469C134.266 24.5156 135.211 24.75 136.086 24.75C137.216 24.75 137.781 24.4089 137.781 23.7266C137.781 23.5078 137.719 23.3255 137.594 23.1797C137.469 23.0339 137.263 22.8828 136.977 22.7266C136.69 22.5703 136.292 22.3932 135.781 22.1953C134.786 21.8099 134.112 21.4245 133.758 21.0391C133.409 20.6536 133.234 20.1536 133.234 19.5391C133.234 18.7995 133.531 18.2266 134.125 17.8203C134.724 17.4089 135.536 17.2031 136.562 17.2031C137.578 17.2031 138.539 17.4089 139.445 17.8203L138.852 19.2031C137.919 18.8177 137.135 18.625 136.5 18.625C135.531 18.625 135.047 18.901 135.047 19.4531C135.047 19.724 135.172 19.9531 135.422 20.1406C135.677 20.3281 136.229 20.5859 137.078 20.9141C137.792 21.1901 138.31 21.4427 138.633 21.6719C138.956 21.901 139.195 22.1667 139.352 22.4688C139.508 22.7656 139.586 23.1224 139.586 23.5391Z" fill="#181818"/>
</svg>
