<svg width="56" height="56" viewBox="0 0 56 56" fill="none" xmlns="http://www.w3.org/2000/svg">
<path d="M53 8.80261V0L29.9231 13.1074V41.7995L37.6677 37.3982V17.5087L53 8.80261Z" fill="#181818"/>
<path d="M3 8.80261V0L26.0769 13.1074V41.7995L18.3323 37.3982V17.5087L3 8.80261Z" fill="#181818"/>
<path d="M28 8.80261V4.40131V0L4.92308 13.1074V41.7995L12.6677 37.3982V17.5087L28 8.80261Z" fill="#181818"/>
<path d="M28 8.80261V4.40131V0L51.0769 13.1074V41.7995L43.3323 37.3982V17.5087L28 8.80261Z" fill="#181818"/>
<path d="M28 47.1974V56L4.92308 42.8926V14.2005L12.6677 18.6018V38.4913L28 47.1974Z" fill="#181818"/>
<path d="M28 47.1974V56L51.0769 42.8926V14.2005L43.3323 18.6018V38.4913L28 47.1974Z" fill="#181818"/>
</svg>
